<?xml version="1.0" encoding="UTF-8"?>
<svg width="603px" height="182px" viewBox="0 0 603 182" version="1.1" xmlns="http://www.w3.org/2000/svg" xmlns:xlink="http://www.w3.org/1999/xlink">
    <!-- Generator: Sketch 52.3 (67297) - http://www.bohemiancoding.com/sketch -->
    <title>amazon</title>
    <desc>Created with Sketch.</desc>
    <g id="Page-1" stroke="none" stroke-width="1" fill="none" fill-rule="evenodd">
        <g id="amazon" fill="#FFFFFF">
            <path d="M374,142.2 C339,168 288.3,181.8 244.6,181.8 C183.4,181.8 128.2,159.1 86.5,121.5 C83.2,118.5 86.2,114.5 90.1,116.8 C135.1,143 190.8,158.7 248.3,158.7 C287.1,158.7 329.7,150.7 368.9,134 C374.8,131.5 379.8,137.9 374,142.2" id="path8"></path>
            <path d="M388.6,125.5 C384.1,119.8 359,122.8 347.8,124.1 C344.4,124.5 343.8,121.5 346.9,119.4 C366.9,105.3 399.7,109.4 403.6,114.1 C407.4,118.8 402.6,151.7 383.8,167.5 C380.9,169.9 378.2,168.6 379.4,165.4 C383.6,154.9 393,131.3 388.6,125.5" id="path10"></path>
            <path d="M348.5,20.1 L348.5,6.4 C348.5,4.3 350.1,2.9 352,2.9 L413.3,2.9 C415.3,2.9 416.8,4.3 416.8,6.4 L416.8,18.1 C416.8,20.1 415.1,22.6 412.2,26.7 L380.4,72 C392.2,71.7 404.7,73.5 415.3,79.5 C417.7,80.9 418.4,82.9 418.6,84.8 L418.6,99.4 C418.6,101.4 416.4,103.7 414.1,102.5 C395.3,92.6 370.2,91.5 349.4,102.6 C347.3,103.8 345,101.4 345,99.5 L345,85.7 C345,83.5 345,79.7 347.3,76.3 L384,23.5 L352,23.5 C350.1,23.5 348.5,22.1 348.5,20.1" id="path12"></path>
            <path d="M125,105.5 L106.4,105.5 C104.6,105.4 103.2,104 103.1,102.3 L103.1,6.6 C103.1,4.7 104.7,3.2 106.7,3.2 L124,3.2 C125.8,3.3 127.3,4.7 127.4,6.4 L127.4,18.9 L127.7,18.9 C132.2,6.8 140.8,1.2 152.2,1.2 C163.9,1.2 171.2,6.8 176.4,18.9 C181,6.8 191.2,1.2 202.2,1.2 C210,1.2 218.6,4.4 223.8,11.7 C229.7,19.7 228.5,31.4 228.5,41.7 L228.5,102.1 C228.5,104 226.9,105.6 224.9,105.6 L206.3,105.6 C204.4,105.5 202.9,104 202.9,102.1 L202.9,51.3 C202.9,47.3 203.3,37.2 202.4,33.4 C201,27 196.8,25.2 191.4,25.2 C186.9,25.2 182.2,28.2 180.3,33 C178.4,37.8 178.6,45.9 178.6,51.3 L178.6,102 C178.6,103.9 177,105.5 175,105.5 L156.4,105.5 C154.5,105.4 153,103.9 153,102 L153,51.3 C153,40.6 154.8,24.9 141.5,24.9 C128.1,24.9 128.6,40.2 128.6,51.3 L128.6,102 C128.6,103.9 127,105.5 125,105.5" id="path14"></path>
            <path d="M469.5,1.2 C497.2,1.2 512.1,25 512.1,55.2 C512.1,84.4 495.6,107.5 469.5,107.5 C442.3,107.5 427.6,83.7 427.6,54.1 C427.6,24.3 442.5,1.2 469.5,1.2 M469.7,20.7 C456,20.7 455.1,39.4 455.1,51.1 C455.1,62.8 454.9,87.8 469.5,87.8 C483.9,87.8 484.6,67.7 484.6,55.4 C484.6,47.3 484.3,37.7 481.8,30 C479.8,23.3 475.6,20.7 469.7,20.7" id="path16" fill-rule="nonzero"></path>
            <path d="M548,105.5 L529.4,105.5 C527.5,105.4 526,103.9 526,102 L526,6.3 C526.2,4.5 527.7,3.2 529.6,3.2 L546.9,3.2 C548.5,3.3 549.9,4.4 550.2,5.9 L550.2,20.5 L550.5,20.5 C555.8,7.4 563.1,1.2 576,1.2 C584.4,1.2 592.5,4.2 597.8,12.5 C602.7,20.2 602.7,33 602.7,42.3 L602.7,102.5 C602.5,104.2 600.9,105.5 599.1,105.5 L580.4,105.5 C578.7,105.4 577.3,104.1 577.1,102.5 L577.1,50.5 C577.1,40 578.3,24.7 565.4,24.7 C560.9,24.7 556.7,27.7 554.6,32.4 C552,38.2 551.6,44.1 551.6,50.5 L551.6,102 C551.6,103.9 550,105.5 548,105.5" id="path18"></path>
            <path d="M297.899,59.8 L297.899,55.8 C284.399,55.8 270.199,58.7 270.199,74.6 C270.199,82.6 274.399,88.1 281.499,88.1 C286.699,88.1 291.399,84.9 294.399,79.6 C297.999,73.1 297.899,67 297.899,59.8 M316.699,105.2 C315.499,106.3 313.699,106.4 312.299,105.6 C306.099,100.5 304.999,98.1 301.599,93.2 C291.399,103.6 284.099,106.8 270.899,106.8 C255.199,106.8 242.999,97.1 242.999,77.8 C242.999,62.7 251.199,52.4 262.899,47.3 C272.999,42.8 287.199,42.1 297.999,40.8 L297.999,38.4 C297.999,34 298.299,28.7 295.699,24.9 C293.399,21.5 289.099,20 285.199,20 C278.099,20 271.799,23.6 270.199,31.2 C269.899,32.9 268.699,34.5 266.999,34.6 L248.899,32.7 C247.399,32.4 245.699,31.1 246.099,28.8 C250.299,6.9 270.099,0.3 287.799,0.3 C296.899,0.3 308.699,2.7 315.899,9.6 C324.999,18.1 324.099,29.4 324.099,41.7 L324.099,70.7 C324.099,79.4 327.699,83.3 331.099,88 C332.299,89.7 332.599,91.7 330.999,93 C327.199,96 320.399,101.9 316.699,105.2" id="path30" fill-rule="nonzero"></path>
            <path d="M55.3,59.8 L55.3,55.8 C41.8,55.8 27.6,58.7 27.6,74.6 C27.6,82.6 31.8,88.1 38.9,88.1 C44.1,88.1 48.8,84.9 51.8,79.6 C55.5,73.1 55.3,67 55.3,59.8 M74.1,105.2 C72.9,106.3 71.1,106.4 69.7,105.6 C63.5,100.5 62.4,98.1 59,93.2 C48.8,103.6 41.5,106.8 28.3,106.8 C12.6,106.8 0.4,97.1 0.4,77.8 C0.4,62.7 8.6,52.4 20.3,47.3 C30.4,42.8 44.6,42.1 55.4,40.8 L55.4,38.4 C55.4,34 55.7,28.7 53.1,24.9 C50.8,21.5 46.5,20 42.6,20 C35.5,20 29.2,23.6 27.6,31.2 C27.3,32.9 26.1,34.5 24.4,34.6 L6.3,32.7 C4.8,32.4 3.1,31.1 3.5,28.8 C7.7,6.9 27.4,0.2 45.2,0.2 C54.3,0.2 66.1,2.6 73.3,9.5 C82.4,18 81.5,29.3 81.5,41.6 L81.5,70.6 C81.5,79.3 85.1,83.2 88.5,87.9 C89.7,89.6 90,91.6 88.4,92.9 C84.6,96 77.9,101.9 74.1,105.2" id="path30_1_" fill-rule="nonzero"></path>
        </g>
    </g>
</svg>