<?xml version="1.0" encoding="UTF-8"?>
<svg width="1016px" height="145px" viewBox="0 0 1016 145" version="1.1" xmlns="http://www.w3.org/2000/svg" xmlns:xlink="http://www.w3.org/1999/xlink">
    <!-- Generator: Sketch 52.3 (67297) - http://www.bohemiancoding.com/sketch -->
    <title>Slice</title>
    <desc>Created with Sketch.</desc>
    <g id="Page-1" stroke="none" stroke-width="1" fill="none" fill-rule="evenodd">
        <path d="M412.731022,65.0326562 L369.247317,65.0326562 C369.247317,77.6346703 379.956393,85.9162504 391.339845,85.7186422 C403.226829,85.7186422 412.731022,77.3921511 412.731022,65.0326562 M141.830054,81.8922288 C137.06447,117.722189 106.420866,144.08492 71.9737868,144.08492 C31.799015,144.08492 -0.265272462,112.997556 -0.265272462,71.4459406 C-0.265272462,27.2894895 39.6397493,0.702203994 71.2634451,0.702203994 C99.5332487,0.702203994 134.708653,20.1845764 140.400379,56.9756309 L114.027817,56.9756309 C110.952667,44.8676373 96.6738983,27.2894895 71.9737868,27.2894895 C45.5742501,27.2894895 26.8086394,46.0443044 25.8645142,70.9519201 C25.1451808,96.6230221 45.1066834,117.722189 71.9737868,117.722189 C93.3379896,117.722189 110.952667,101.590174 116.185818,81.8922288 L141.830054,81.8922288 M349.043039,2.13037237 L349.043039,21.3702256 C346.210664,22.3133556 329.342295,17.7773492 329.342295,31.5560302 L329.342295,85.2156395 L346.426464,85.2156395 L346.426464,103.727935 L329.342295,103.727935 L329.342295,134.590744 L303.410325,134.590744 L303.410325,104.446511 L290.588207,104.446511 L290.588207,85.2156395 L303.410325,85.2156395 L303.410325,25.4032294 C303.410325,17.3282396 306.980017,2.13037237 327.894636,2.13037237 L349.043039,2.13037237 M202.19112,80.2484879 L202.19112,104.446511 C202.19112,104.446511 196.238636,105.63216 190.555902,104.446511 C182.930968,102.542286 175.342,96.3894852 171.538525,91.6199417 L171.538525,101.590174 L146.352863,101.590174 L146.352863,2.62439288 L172.257858,2.62439288 L172.257858,47.9485289 C170.828183,78.8113373 188.631685,84.0299903 202.19112,80.2484879 M441.252593,46.0443044 C442.223693,75.2454074 426.515249,105.63216 392.059178,105.883661 C361.172799,106.57529 342.398197,80.9311344 342.398197,55.996572 C342.398197,23.7325418 364.508708,0.702203994 394.675753,0.702203994 C418.656531,0.702203994 436.262217,17.3282396 440.299476,34.6459039 L413.666156,34.6459039 C408.450988,26.8134334 402.759263,23.2564857 393.488853,23.2564857 C380.405977,23.2564857 368.060417,33.2356999 368.060417,46.0443044 L441.252593,46.0443044 M293.204782,2.62439288 C291.541323,5.69630221 289.895848,13.537755 289.392315,19.2324641 L289.392315,73.5747199 C288.93374,95.8954647 268.729462,104.446511 248.28241,104.446511 C215.256014,104.446511 204.816687,89.7336816 204.313154,72.1645159 L226.909215,72.1645159 C229.04024,84.4970642 237.834092,86.6438079 245.656843,86.6438079 C261.59907,86.6438079 264.925987,75.9729649 264.215645,73.1256104 C263.496311,64.3140809 250.898985,65.7422493 234.992724,63.1284317 C206.938721,59.095428 198.864203,43.4304868 198.864203,31.0979385 C198.864203,10.4478813 218.591922,-0.00738909876 235.927858,-0.00738909876 C251.609327,-0.00738909876 261.59907,7.10650621 266.112887,10.672436 C267.290795,6.64841446 268.010129,2.13037237 268.010129,2.62439288 L293.204782,2.62439288 M262.561178,52.2240518 C264.215645,37.9693146 262.066636,32.0500507 258.505936,27.2894895 C252.571435,20.1845764 238.535442,19.933075 238.535442,19.933075 C236.413408,19.2324641 222.62019,20.6606325 221.927831,31.5560302 C221.676064,43.9155251 237.357533,46.0443044 262.561178,52.2240518" id="path21" fill="#FFFFFF" fill-rule="nonzero" transform="translate(220.514837, 72.038765) scale(-1, 1) rotate(-180.000000) translate(-220.514837, -72.038765) "></path>
        <path d="M508.51926,112.515214 C508.51926,104.206687 499.941209,99.2305531 495.2026,95.4310863 C491.390132,100.40722 484.970082,105.625873 484.25974,112.748751 C484.007973,118.452442 489.268099,124.380688 496.362525,124.380688 C503.735692,124.380688 508.51926,118.452442 508.51926,112.515214 Z M562.4333,7.13614838 L539.405639,37.2624171 C551.984982,50.3315051 555.069124,77.3948467 555.069124,77.3948467 L532.99458,77.3948467 C533.69593,75.2570852 529.406904,61.4873864 525.108887,55.7747129 L508.51926,78.5535494 C513.48266,83.3230928 530.836579,90.6705251 530.836579,112.281677 C530.836579,131.52153 515.379902,144.797208 495.4184,144.797208 C472.624522,144.797208 461.924437,131.027509 461.681662,113.700863 C461.447879,100.649739 470.475513,89.9878785 475.465889,83.7901667 C467.858938,81.1853313 442.916051,67.1731133 442.916051,40.8373292 C442.916051,19.7022336 461.924437,3.55225416 484.727307,3.79477331 C497.342617,3.79477331 515.856461,11.6182617 523.697195,19.7022336 L533.69593,7.13614838 L562.4333,7.13614838 Z M510.146752,37.5049363 C504.688809,32.5198203 492.334258,26.0975537 484.25974,26.0975537 C477.363131,26.8251111 468.326505,32.0437641 468.326505,42.238551 C468.326505,42.238551 466.923804,52.208783 488.30599,66.2299832 L510.146752,37.5049363 Z M670.800881,42.238551 C670.800881,63.6071835 657.259429,74.7720469 645.606227,78.8050507 C649.184911,81.6793518 665.801513,86.1794295 665.801513,107.054042 C665.801513,131.52153 644.446302,141.240261 623.99925,141.240261 L563.386417,141.240261 L563.386417,7.13614838 L633.269659,7.13614838 C647.746244,7.13614838 670.800881,18.2920297 670.800881,42.238551 Z M1015.85613,140.53965 L990.66148,140.53965 L990.66148,7.13614838 L1015.85613,7.13614838 L1015.85613,140.53965 Z M890.152617,84.2931694 L890.152617,108.464246 C890.152617,108.464246 884.442908,109.667859 878.265632,108.464246 C870.424898,106.59595 863.294505,100.40722 859.239263,95.6736055 L859.239263,105.625873 L834.071585,105.625873 L834.071585,7.13614838 L859.733805,7.13614838 L859.733805,52.208783 C858.295138,82.8560189 876.125615,88.0746719 890.152617,84.2931694 Z M828.110109,84.2931694 L828.110109,108.464246 C828.110109,108.464246 822.1846,109.667859 816.483883,108.464246 C808.634157,106.59595 801.746539,100.40722 797.718272,95.6736055 L797.718272,105.625873 L771.804285,105.625873 L771.804285,7.13614838 L798.176847,7.13614838 L798.176847,52.208783 C796.747172,82.8560189 814.568657,88.0746719 828.110109,84.2931694 Z M986.147663,50.3315051 C987.10078,79.3080534 971.185528,109.667859 936.972231,109.910378 C906.301653,110.619971 887.778817,84.9758159 887.778817,60.3107193 C887.778817,28.2442973 909.871345,5.2139595 939.804607,5.2139595 C963.335802,5.2139595 981.633846,21.8399951 984.969754,38.9241225 L958.336434,38.9241225 C953.813625,31.1006341 947.663325,27.7682412 938.374932,27.7682412 C925.53483,27.7682412 913.18927,37.5049363 913.18927,50.3315051 L986.147663,50.3315051 Z M768.48636,7.13614838 C766.094576,10.9086686 764.197334,22.2891047 764.197334,26.8251111 C764.197334,26.8251111 764.673893,58.6400318 764.197334,77.8619206 C763.954559,99.931164 743.52549,108.464246 723.321212,108.464246 C691.472725,108.464246 680.080282,93.7603988 680.080282,76.4427345 L702.901135,76.4427345 C704.771402,88.5417458 713.583236,90.6705251 721.190187,90.6705251 C736.853672,90.6705251 739.973781,79.9906999 739.713023,77.3948467 C738.759906,68.6012817 726.198546,70.0294501 710.966661,67.4156325 C682.202315,63.3736465 674.370573,47.7176875 674.370573,35.376157 C674.370573,14.9596368 694.0893,4.50436641 711.685994,4.50436641 C726.881913,4.50436641 736.853672,11.6182617 741.403456,15.1841916 C742.33859,11.16017 743.282715,6.64212787 743.282715,7.13614838 L768.48636,7.13614838 Z M638.260035,104.691725 C638.260035,89.4848758 623.279916,87.1315418 617.111632,87.1315418 L588.086528,87.1315418 L588.086528,119.889593 L618.046765,119.889593 C627.308183,119.889593 638.260035,115.353586 638.260035,104.691725 Z M957.868868,69.3108748 L914.385162,69.3108748 C914.385162,81.6793518 925.067263,89.9878785 936.729456,89.727395 C948.364675,89.727395 957.868868,81.4188683 957.868868,69.3108748 Z M641.110393,45.8224452 C641.110393,31.567708 624.709591,27.7682412 620.186782,27.7682412 L588.58107,27.7682412 L588.58107,67.1731133 L618.523324,67.1731133 C639.455927,67.1731133 641.110393,53.8794706 641.110393,45.8224452 Z M739.973781,56.484306 C741.619256,42.238551 739.973781,36.3192871 736.152322,31.567708 C730.685388,24.6963319 716.901162,24.4448305 716.901162,24.4448305 C714.752153,23.7442196 700.500359,25.172388 700.284559,35.8342488 C700.284559,48.1757792 715.714261,50.3315051 739.973781,56.484306 Z" id="path23" fill="#FFFFFF" fill-rule="nonzero" transform="translate(729.386092, 74.294643) scale(-1, 1) rotate(-180.000000) translate(-729.386092, -74.294643) "></path>
    </g>
</svg>