<?xml version="1.0" encoding="UTF-8"?>
<svg width="230px" height="75px" viewBox="0 0 230 75" version="1.1" xmlns="http://www.w3.org/2000/svg" xmlns:xlink="http://www.w3.org/1999/xlink">
    <!-- Generator: Sketch 52.3 (67297) - http://www.bohemiancoding.com/sketch -->
    <title>ws</title>
    <desc>Created with Sketch.</desc>
    <g id="Page-1" stroke="none" stroke-width="1" fill="none" fill-rule="evenodd">
        <g id="ws" fill="#FFFFFF">
            <path d="M43.5,2.2 C43.1,2.2 42.7,2.3 42.3,2.4 C41.9,2.6 41.4,2.8 41,3 C40.5,3.3 40.1,3.7 39.8,4.1 C39.4,4.6 39.2,5.2 39,5.8 C38,9.1 36.8,13 35.5,17.4 C34.2,21.8 32.7,26.5 31.1,31.5 L29.1,31.5 L21.5,8.1 L13.5,31.6 L11.6,31.6 L7.2,15.9 L4.2,5.1 C4,4.7 3.8,4.3 3.6,3.9 C3.3,3.6 3,3.3 2.6,3 C2.2,2.8 1.8,2.6 1.3,2.5 C0.9,2.3 0.4,2.3 0,2.2 L0,0.7 L12.4,0.7 L12.4,2.2 C11.5,2.2 10.6,2.3 9.6,2.5 C8.9,2.7 8.5,2.9 8.5,3.3 C8.5,3.5 8.5,3.7 8.6,3.9 C8.6,4.1 8.7,4.3 8.7,4.5 C9,5.8 9.6,7.8 10.4,10.7 C11.2,13.6 12.5,17.9 14.1,23.7 L21.7,1.1 L23.8,1.1 L31.5,24.2 C32.5,20.6 33.4,17.5 34.2,14.9 C35,12.3 35.5,10 36,8.1 C36.3,6.8 36.6,5.9 36.6,5.4 C36.7,5 36.7,4.6 36.7,4.1 C36.6,3.5 36.2,3.1 35.7,2.9 C34.7,2.5 33.6,2.3 32.5,2.2 L32.5,0.7 L43.5,0.7 L43.5,2.2 Z" id="Path"></path>
            <path d="M59.2,31.1 L45.5,31.1 L45.5,29.6 L47.2,29.5 C47.7,29.5 48.2,29.4 48.7,29.2 C49.1,29.1 49.5,28.8 49.7,28.4 C49.9,28 50,27.5 50,27.1 L50,5.1 C50,4.7 49.9,4.2 49.8,3.8 C49.5,3.4 49.2,3.1 48.7,3 C48.2,2.8 47.7,2.7 47.1,2.6 C46.6,2.5 46,2.4 45.5,2.3 L45.5,0.7 L59.2,0.7 L59.2,2.2 C58.7,2.2 58.1,2.3 57.6,2.4 C57.1,2.5 56.5,2.6 56,2.8 C55.5,2.9 55.1,3.2 54.9,3.6 C54.7,4 54.6,4.4 54.6,4.9 L54.6,26.9 C54.6,27.3 54.7,27.8 54.9,28.2 C55.1,28.6 55.5,28.9 55.9,29.1 C56.4,29.3 56.9,29.4 57.4,29.5 C58,29.6 58.5,29.7 59.1,29.7 L59.2,31.1 Z" id="Path"></path>
            <path d="M87.3,22.1 L86.7,31.1 L62.9,31.1 L62.9,29.6 L64.4,29.5 C64.9,29.5 65.3,29.4 65.8,29.2 C66.2,29 66.5,28.8 66.7,28.4 C66.9,28 67,27.5 67,27 L67,5.2 C67,4.8 66.9,4.3 66.8,3.9 C66.6,3.5 66.2,3.1 65.8,3 C65.4,2.8 64.9,2.6 64.4,2.5 C63.9,2.4 63.4,2.3 62.9,2.2 L62.9,0.7 L75.8,0.7 L75.8,2.2 C75.3,2.2 74.8,2.3 74.2,2.4 C73.7,2.5 73.3,2.6 72.8,2.7 C72.4,2.8 72,3.2 71.8,3.6 C71.6,4 71.5,4.5 71.5,4.9 L71.5,25.3 C71.5,26 71.5,26.8 71.6,27.5 C71.7,28 71.9,28.4 72.3,28.7 C72.7,29 73.2,29.2 73.8,29.2 C74.7,29.3 75.6,29.3 76.5,29.3 C77,29.3 77.6,29.3 78.2,29.3 C78.7,29.3 79.3,29.2 79.8,29.1 C80.3,29 80.7,28.9 81.2,28.7 C81.5,28.6 81.9,28.4 82.1,28.1 C82.9,27.2 83.6,26.2 84.2,25.1 C84.8,24.1 85.4,23 85.8,21.9 L87.3,22.1 Z" id="Path"></path>
            <path d="M114.4,22.1 L113.8,31.1 L90,31.1 L90,29.6 L91.5,29.5 C92,29.5 92.4,29.4 92.9,29.2 C93.3,29 93.6,28.8 93.8,28.4 C94,27.9 94,27.4 94,27 L94,5.2 C94,4.8 93.9,4.3 93.8,3.9 C93.6,3.5 93.2,3.2 92.8,3 C92.4,2.8 91.9,2.6 91.4,2.5 C91,2.4 90.5,2.3 90,2.2 L90,0.7 L102.8,0.7 L102.8,2.2 C102.3,2.2 101.8,2.3 101.2,2.4 C100.7,2.5 100.3,2.6 99.8,2.7 C99.4,2.8 99,3.2 98.8,3.6 C98.6,4 98.5,4.5 98.5,4.9 L98.5,25.3 C98.5,26 98.5,26.8 98.6,27.5 C98.7,28 98.9,28.4 99.3,28.7 C99.7,29 100.2,29.2 100.8,29.2 C101.7,29.3 102.6,29.3 103.5,29.3 C104,29.3 104.6,29.3 105.2,29.3 C105.7,29.3 106.3,29.2 106.8,29.1 C107.3,29 107.7,28.9 108.2,28.7 C108.5,28.6 108.9,28.4 109.1,28.1 C109.9,27.2 110.5,26.2 111.1,25.1 C111.7,24.1 112.3,23 112.7,21.9 L114.4,22.1 Z" id="Path"></path>
            <path d="M130.5,31.1 L116.8,31.1 L116.8,29.6 L118.5,29.5 C119,29.5 119.5,29.4 120.1,29.2 C120.5,29.1 120.9,28.8 121.1,28.4 C121.3,28 121.4,27.5 121.4,27.1 L121.4,5.1 C121.4,4.7 121.3,4.2 121.2,3.8 C120.9,3.4 120.6,3.1 120.1,3 C119.6,2.8 119,2.7 118.5,2.6 C118,2.5 117.4,2.4 116.9,2.3 L116.9,0.7 L130.6,0.7 L130.6,2.2 C130.1,2.2 129.5,2.3 129,2.4 C128.5,2.5 127.9,2.6 127.4,2.7 C126.9,2.8 126.5,3.1 126.3,3.5 C126.1,4 126,4.4 126,4.9 L126,26.9 C126,27.3 126.1,27.8 126.3,28.2 C126.5,28.6 126.9,28.9 127.4,29.1 C127.9,29.3 128.4,29.4 128.9,29.5 C129.5,29.6 130,29.7 130.6,29.7 L130.5,31.1 Z" id="Path"></path>
            <path d="M165.1,31.1 L152.5,31.1 L152.5,29.6 C153.4,29.6 154.4,29.4 155.3,29.2 C156,29 156.4,28.7 156.4,28.4 C156.4,28.2 156.4,28.1 156.4,27.9 C156.4,27.7 156.3,27.6 156.3,27.4 L153.7,20.5 L143,20.5 C142.6,21.5 142.3,22.4 142,23.1 C141.7,23.8 141.5,24.5 141.3,25.2 C141.1,25.7 141,26.2 140.9,26.7 C140.8,27 140.8,27.3 140.8,27.6 C140.9,28.3 141.5,28.8 142.2,28.9 C143.2,29.2 144.2,29.4 145.2,29.5 L145.2,31 L133.8,31 L133.8,29.5 C134.3,29.5 134.7,29.4 135.2,29.3 C135.7,29.2 136.2,29 136.6,28.8 C137.1,28.5 137.6,28 137.9,27.6 C138.3,27.1 138.6,26.5 138.8,25.8 C140.3,22 142,17.7 143.9,12.9 C145.8,8.1 147.4,3.9 148.8,0.2 L150.5,0.2 L160.6,26.4 C160.8,26.9 161,27.3 161.3,27.8 C161.6,28.2 162,28.5 162.4,28.8 C162.8,29 163.2,29.2 163.7,29.3 C164.1,29.4 164.6,29.5 165,29.5 L165.1,31.1 Z M152.9,18.7 L148.3,6.9 L143.8,18.7 L152.9,18.7 Z" id="Shape" fill-rule="nonzero"></path>
            <path d="M205.4,31.1 L192,31.1 L192,29.6 C192.6,29.6 193.3,29.5 193.9,29.5 C194.4,29.5 195,29.3 195.5,29.1 C195.9,28.9 196.2,28.6 196.5,28.2 C196.7,27.8 196.8,27.3 196.8,26.9 L196.8,4.7 L196.5,4.7 L186.1,30.6 L185,30.6 L175.1,4.1 L174.8,4.1 L174.8,22.3 C174.8,23.6 174.9,25 175.1,26.3 C175.2,27.1 175.6,27.8 176.1,28.3 C176.7,28.7 177.4,29 178.1,29.2 C178.7,29.4 179.4,29.5 180,29.6 L180,31.1 L167.7,31.1 L167.7,29.6 C168.4,29.5 169,29.4 169.7,29.3 C170.3,29.2 170.9,28.9 171.3,28.6 C171.8,28.1 172.2,27.5 172.3,26.8 C172.5,25.4 172.6,24 172.6,22.7 L172.6,7 C172.6,6.3 172.5,5.5 172.3,4.8 C172.1,4.3 171.8,3.8 171.4,3.4 C170.9,3 170.4,2.7 169.8,2.5 C169.2,2.3 168.6,2.2 167.9,2.2 L167.9,0.7 L178.3,0.7 L187,23.5 L194.4,4.4 C194.7,3.7 194.9,2.9 195.1,2.2 C195.2,1.7 195.4,1.2 195.4,0.7 L205.3,0.7 L205.3,2.2 C204.8,2.2 204.3,2.3 203.8,2.4 C203.3,2.5 202.9,2.6 202.4,2.7 C202,2.8 201.6,3.1 201.4,3.6 C201.2,4 201.1,4.5 201.1,4.9 L201.1,26.8 C201.1,27.2 201.2,27.7 201.4,28 C201.6,28.4 202,28.7 202.4,28.9 C202.8,29.1 203.3,29.2 203.8,29.3 C204.3,29.4 204.8,29.5 205.4,29.5 L205.4,31.1 Z" id="Path"></path>
            <path d="M228.1,17.2 C228.7,17.9 229.2,18.7 229.5,19.6 C229.8,20.6 230,21.6 230,22.6 C230.1,25.2 229,27.6 227,29.2 C225,31 222.3,31.9 219.6,31.8 C218.2,31.8 216.8,31.6 215.5,31.2 C214.3,30.8 213.1,30.3 212,29.7 L211.1,31.3 L209.4,31.3 L209.1,20.8 L210.8,20.8 C211.1,22 211.5,23.2 212.1,24.3 C212.6,25.4 213.2,26.3 214,27.2 C214.7,28 215.6,28.7 216.6,29.2 C217.7,29.7 218.9,30 220.1,30 C221,30 221.9,29.9 222.7,29.6 C224,29.2 225.1,28.2 225.5,26.8 C225.7,26.1 225.8,25.3 225.8,24.6 C225.8,23.4 225.5,22.2 224.8,21.2 C224.1,20.1 223,19.3 221.7,18.8 C220.8,18.4 219.7,18 218.5,17.6 C217.3,17.1 216.3,16.7 215.4,16.3 C213.8,15.7 212.5,14.6 211.4,13.3 C210.4,11.9 209.9,10.1 210,8.4 C210,7.3 210.2,6.2 210.7,5.2 C211.2,4.2 211.9,3.3 212.7,2.5 C213.6,1.7 214.6,1.1 215.6,0.7 C216.7,0.3 217.9,0.1 219.1,0.1 C220.4,0.1 221.7,0.3 222.9,0.7 C223.9,1.1 224.9,1.6 225.9,2.2 L226.8,0.7 L228.5,0.7 L228.7,10.8 L227,10.8 C226.7,9.7 226.4,8.6 225.9,7.5 C225.5,6.5 225,5.5 224.4,4.6 C223.8,3.8 223,3.1 222.2,2.6 C221.2,2.1 220.1,1.8 218.9,1.9 C217.6,1.9 216.4,2.3 215.4,3.2 C214.5,4 213.9,5.2 214,6.4 C214,7.6 214.3,8.7 214.9,9.7 C215.6,10.6 216.5,11.4 217.6,11.8 C218.6,12.3 219.6,12.7 220.7,13.1 C221.7,13.5 222.7,13.9 223.6,14.3 C224.4,14.7 225.3,15.1 226,15.6 C226.8,16 227.5,16.5 228.1,17.2 Z" id="Path"></path>
            <path d="M45.8,59.3 C46.4,60 46.9,60.8 47.2,61.6 C47.5,62.6 47.7,63.6 47.7,64.6 C47.8,67.2 46.7,69.6 44.7,71.2 C42.6,73 40,73.9 37.3,73.8 C35.9,73.8 34.5,73.6 33.2,73.2 C32,72.8 30.8,72.3 29.7,71.7 L28.8,73.2 L27.1,73.2 L26.8,62.8 L28.5,62.8 C28.8,64 29.2,65.2 29.8,66.3 C30.3,67.4 30.9,68.3 31.7,69.2 C32.4,70 33.3,70.7 34.3,71.2 C35.4,71.7 36.6,72 37.8,72 C38.7,72 39.6,71.9 40.4,71.6 C41.1,71.4 41.7,71 42.2,70.5 C42.7,70 43,69.5 43.2,68.8 C43.4,68.1 43.5,67.3 43.5,66.6 C43.5,65.4 43.2,64.2 42.5,63.2 C41.8,62.1 40.7,61.3 39.4,60.8 C38.5,60.5 37.4,60.1 36.2,59.6 C35,59.2 34,58.7 33.1,58.3 C31.5,57.7 30.2,56.6 29.1,55.3 C28.1,53.9 27.6,52.1 27.7,50.4 C27.7,49.3 27.9,48.2 28.4,47.2 C28.9,46.2 29.6,45.3 30.4,44.5 C31.3,43.7 32.3,43.1 33.3,42.7 C34.4,42.3 35.6,42.1 36.8,42.1 C38.1,42.1 39.4,42.3 40.6,42.7 C41.6,43.1 42.6,43.6 43.6,44.2 L44.5,42.7 L46.2,42.7 L46.4,53 L44.7,53 C44.4,51.9 44.1,50.8 43.6,49.7 C43.2,48.7 42.7,47.7 42.1,46.8 C41.5,46 40.7,45.3 39.9,44.8 C38.9,44.3 37.8,44 36.6,44.1 C35.3,44.1 34.1,44.5 33.1,45.4 C32.2,46.2 31.6,47.4 31.7,48.6 C31.7,49.8 32,50.9 32.6,51.9 C33.3,52.8 34.2,53.6 35.3,54 C36.3,54.5 37.3,54.9 38.4,55.3 C39.4,55.7 40.4,56.1 41.3,56.5 C42.1,56.9 43,57.3 43.8,57.8 C44.5,58.2 45.2,58.7 45.8,59.3 Z" id="Path"></path>
            <path d="M75.6,46.5 C77,47.9 78,49.6 78.8,51.5 C79.6,53.6 80,55.8 79.9,58.1 C79.9,60.3 79.5,62.6 78.7,64.7 C78,66.6 76.9,68.3 75.5,69.7 C74.2,71.1 72.6,72.1 70.9,72.9 C67.2,74.4 63.1,74.4 59.4,72.8 C57.7,72 56.1,70.9 54.8,69.6 C53.5,68.1 52.5,66.4 51.8,64.5 C51.1,62.5 50.7,60.3 50.7,58.2 C50.6,56 51,53.7 51.8,51.6 C52.5,49.7 53.6,48 55,46.6 C56.3,45.2 57.9,44.1 59.7,43.4 C63.3,41.9 67.4,41.9 71,43.4 C72.7,44 74.3,45.1 75.6,46.5 Z M72.4,68.1 C73.2,66.7 73.8,65.2 74.2,63.7 C75,60 74.9,56.2 74.1,52.5 C73.8,50.9 73.2,49.4 72.3,48 C71.5,46.8 70.5,45.8 69.3,45.2 C68.1,44.5 66.7,44.2 65.2,44.2 C63.7,44.2 62.1,44.6 60.8,45.4 C59.6,46.2 58.6,47.3 57.9,48.5 C57.1,49.9 56.6,51.4 56.3,52.9 C55.9,54.6 55.8,56.4 55.8,58.2 C55.8,60.1 56,61.9 56.4,63.8 C56.7,65.4 57.3,66.9 58.2,68.2 C58.9,69.4 59.9,70.4 61.1,71.1 C62.4,71.8 63.8,72.2 65.3,72.2 C66.8,72.2 68.2,71.9 69.4,71.1 C70.7,70.4 71.7,69.3 72.4,68.1 Z" id="Shape" fill-rule="nonzero"></path>
            <path d="M112.5,44.4 C111.9,44.5 111.3,44.6 110.7,44.7 C110.1,44.8 109.5,45.1 108.9,45.4 C108.3,45.9 107.9,46.7 107.9,47.5 C107.7,48.8 107.6,50.1 107.6,51.4 L107.6,73.6 L105.7,73.6 L87.3,48.7 L87.3,64.4 C87.3,65.8 87.4,67.1 87.6,68.5 C87.7,69.3 88.1,70 88.6,70.5 C89.2,70.9 89.9,71.2 90.6,71.4 C91.3,71.6 91.9,71.7 92.6,71.8 L92.6,73.3 L80.2,73.3 L80.2,71.8 C80.9,71.7 81.5,71.6 82.2,71.4 C82.8,71.3 83.4,71 83.9,70.7 C84.4,70.2 84.8,69.6 84.9,68.9 C85.1,67.5 85.2,66.1 85.2,64.7 L85.2,49.7 C85.2,49 85.1,48.3 84.9,47.7 C84.7,47.1 84.4,46.6 84,46.2 C83.4,45.7 82.7,45.3 81.9,45 C81.2,44.7 80.5,44.5 79.8,44.5 L79.8,43 L88.5,43 L105.6,66.2 L105.6,51.6 C105.6,50.2 105.5,48.9 105.3,47.5 C105.2,46.8 104.8,46.1 104.3,45.6 C103.7,45.2 103,45 102.3,44.8 C101.6,44.6 100.9,44.4 100.2,44.4 L100.2,42.9 L112.6,42.9 L112.5,44.4 Z" id="Path"></path>
            <path d="M137.1,46.5 C138.5,47.9 139.5,49.6 140.3,51.5 C141.1,53.6 141.5,55.8 141.4,58.1 C141.4,60.3 141,62.6 140.2,64.7 C139.5,66.6 138.4,68.3 137,69.7 C135.7,71.1 134.1,72.1 132.4,72.9 C128.7,74.4 124.6,74.4 121,72.9 C119.3,72.1 117.7,71 116.4,69.6 C115.1,68.1 114.1,66.4 113.4,64.5 C112.7,62.5 112.3,60.3 112.3,58.2 C112.3,55.9 112.7,53.7 113.5,51.6 C114.2,49.7 115.3,48 116.7,46.6 C118,45.2 119.6,44.1 121.4,43.4 C125,41.9 129.1,41.9 132.7,43.4 C134.3,44.1 135.9,45.2 137.1,46.5 Z M134,68.1 C134.8,66.7 135.4,65.2 135.8,63.7 C136.6,60 136.5,56.2 135.7,52.5 C135.4,50.9 134.8,49.4 133.9,48 C133.1,46.8 132.1,45.8 130.9,45.2 C129.7,44.5 128.3,44.2 126.8,44.2 C125.3,44.2 123.7,44.6 122.4,45.4 C121.2,46.2 120.2,47.3 119.5,48.6 C118.7,50 118.2,51.5 117.9,53 C117.5,54.7 117.4,56.5 117.4,58.3 C117.4,60.2 117.6,62 118,63.9 C118.3,65.5 118.9,67 119.8,68.3 C120.5,69.5 121.5,70.5 122.7,71.2 C124,71.9 125.4,72.3 126.9,72.3 C128.3,72.3 129.8,71.9 131,71.2 C132.2,70.4 133.3,69.3 134,68.1 Z" id="Shape" fill-rule="nonzero"></path>
            <path d="M179.3,73.3 L165.9,73.3 L165.9,71.8 C166.5,71.8 167.2,71.7 167.8,71.6 C168.3,71.6 168.9,71.4 169.4,71.2 C169.8,71 170.1,70.7 170.4,70.3 C170.6,69.9 170.7,69.4 170.7,69 L170.7,46.9 L170.4,46.9 L160,72.8 L158.9,72.8 L149,46.4 L148.7,46.4 L148.7,64.6 C148.7,65.9 148.8,67.3 149.1,68.6 C149.2,69.4 149.6,70.1 150.1,70.6 C150.7,71 151.4,71.3 152.1,71.5 C152.7,71.7 153.4,71.8 154,71.9 L154,73.4 L141.7,73.4 L141.7,71.9 C142.4,71.8 143,71.7 143.7,71.6 C144.3,71.5 144.9,71.2 145.3,70.9 C145.8,70.4 146.2,69.8 146.3,69.1 C146.5,67.7 146.6,66.3 146.6,65 L146.6,49.2 C146.6,48.5 146.5,47.7 146.3,47 C146.1,46.5 145.8,46 145.4,45.6 C144.9,45.2 144.4,44.9 143.8,44.7 C143.2,44.5 142.5,44.4 141.9,44.4 L141.9,42.9 L152.3,42.9 L161,65.7 L168.4,46.6 C168.7,45.9 168.9,45.1 169.1,44.4 C169.2,43.9 169.3,43.4 169.4,42.9 L179.3,42.9 L179.3,44.4 C178.8,44.4 178.3,44.5 177.8,44.6 C177.3,44.7 176.9,44.8 176.4,44.9 C176,45 175.6,45.3 175.4,45.8 C175.2,46.2 175.1,46.7 175.1,47.1 L175.1,69 C175.1,69.4 175.2,69.9 175.4,70.3 C175.6,70.7 176,71 176.4,71.2 C176.8,71.4 177.3,71.5 177.8,71.6 C178.3,71.7 178.8,71.8 179.4,71.8 L179.4,73.3 L179.3,73.3 Z" id="Path"></path>
            <path d="M212.6,73.3 L200,73.3 L200,71.8 C200.9,71.8 201.9,71.6 202.8,71.4 C203.5,71.2 203.9,70.9 203.9,70.6 C203.9,70.4 203.9,70.3 203.9,70.1 C203.9,69.9 203.8,69.8 203.8,69.6 L201.3,62.8 L190.6,62.8 C190.2,63.8 189.9,64.7 189.6,65.4 C189.3,66.1 189.1,66.8 188.9,67.5 C188.7,68 188.6,68.5 188.5,69 C188.4,69.3 188.4,69.6 188.4,69.9 C188.5,70.6 189.1,71.1 189.8,71.2 C190.8,71.5 191.8,71.7 192.8,71.8 L192.8,73.3 L181.4,73.3 L181.4,71.8 C181.9,71.8 182.3,71.7 182.8,71.6 C183.3,71.5 183.8,71.3 184.2,71 C184.7,70.7 185.2,70.3 185.5,69.8 C185.9,69.3 186.2,68.7 186.4,68 C187.9,64.2 189.6,59.9 191.5,55.1 C193.4,50.3 195,46.1 196.4,42.4 L198.2,42.4 L208.3,68.6 C208.5,69.1 208.7,69.5 209,69.9 C209.3,70.3 209.7,70.6 210.1,70.9 C210.5,71.1 210.9,71.3 211.4,71.4 C211.8,71.5 212.3,71.6 212.7,71.6 L212.6,73.3 Z M200.4,60.9 L195.8,49.1 L191.3,60.9 L200.4,60.9 Z" id="Shape" fill-rule="nonzero"></path>
        </g>
    </g>
</svg>